# xmcd
#
# Track frame offsets:
#	182
#	18245
#	37160
#
# Disc length: 736 seconds
#
# Revision: 1
# Processed by: cddbd v1.4PL0 Copyright (c) Steve Scherf et al.
# Submitted via: EasyCDDAExtractor 5.0.7
#
DISCID=1d02de03
DTITLE=Dino - Ooh Child
DYEAR=2002
DGENRE=Pop
TTITLE0=Ooh Child(Radio Edit)
TTITLE1=Ooh Child(12 Inch Mix Edit)
TTITLE2=Ooh Child(Remix Edit)
EXTD=
EXTT0=
EXTT1=
EXTT2=
PLAYORDER=
